<svg id="Layer_1" data-name="Layer 1" xmlns="http://www.w3.org/2000/svg" viewBox="0 0 102.53 34.45"><defs><style>.cls-1{fill:#2196f3;}.cls-2{font-size:19.84px;font-family:Poppins-SemiBold, Poppins;font-weight:600;}</style></defs><g id="LWPOLYLINE"><path class="cls-1" d="M16.16,9.32l7.5,4.32a.53.53,0,0,1,.27.47v8.81a.55.55,0,0,1-.27.48L16,27.86a.56.56,0,0,1-.56,0L7.81,23.39a.55.55,0,0,1-.27-.47V5.27a.52.52,0,0,1,.28-.47l3.73-2.12a.54.54,0,0,1,.75.21.52.52,0,0,1,.07.27v17a.56.56,0,0,0,.28.48l2.8,1.64a.56.56,0,0,0,.56,0l2.81-1.64a.56.56,0,0,0,.28-.48V16.91a.56.56,0,0,0-.28-.48l-3.21-1.85a.55.55,0,0,1-.27-.48V9.79a.55.55,0,0,1,.55-.55.53.53,0,0,1,.27.08Z" transform="translate(-7.54 -2.61)"/></g><text class="cls-2" transform="translate(21.36 22.68)">Explorer</text></svg>