<svg id="Layer_1" data-name="Layer 1" xmlns="http://www.w3.org/2000/svg" viewBox="0 0 16.39 25.33"><defs><style>.cls-1{fill:#2196f3;}</style></defs><g id="LWPOLYLINE"><path class="cls-1" d="M16.91,10l7.5,4.32a.55.55,0,0,1,.27.48v8.81a.55.55,0,0,1-.27.47l-7.65,4.47a.56.56,0,0,1-.56,0L8.56,24.12a.55.55,0,0,1-.27-.48V6a.54.54,0,0,1,.28-.48L12.3,3.41a.54.54,0,0,1,.75.21.5.5,0,0,1,.07.27v17a.53.53,0,0,0,.28.47L16.2,23a.56.56,0,0,0,.56,0l2.81-1.65a.54.54,0,0,0,.28-.47V17.63a.56.56,0,0,0-.28-.47l-3.21-1.85a.55.55,0,0,1-.27-.48V10.52a.55.55,0,0,1,.55-.55.64.64,0,0,1,.27.07Z" transform="translate(-8.29 -3.34)"/></g></svg>