<?xml version="1.0" encoding="utf-8"?>
<!-- Generator: Adobe Illustrator 26.4.1, SVG Export Plug-In . SVG Version: 6.00 Build 0)  -->
<svg version="1.1" id="Layer_1" xmlns="http://www.w3.org/2000/svg" xmlns:xlink="http://www.w3.org/1999/xlink" x="0px" y="0px"
	 viewBox="0 0 129.8 34.5" style="enable-background:new 0 0 129.8 34.5;" xml:space="preserve">
<style type="text/css">
	.st0{enable-background:new    ;}
	.st1{fill:#E6E7E8;}
</style>
<g class="st0">
	<path class="st1" d="M32.4,28V10.8h12.7v2.9h-9.3v3.8h8.6v2.9h-8.6v4.7h9.6V28H32.4z"/>
	<path class="st1" d="M46.8,28l4.5-6.4l-4.3-6h4l2.2,3.4l2.3-3.4h3.9l-4.2,5.9l4.6,6.6h-4l-2.5-3.9L50.7,28H46.8z"/>
	<path class="st1" d="M61.7,15.6h3.1v1.8c0.4-0.6,0.9-1.1,1.6-1.5s1.4-0.6,2.3-0.6c1.4,0,2.7,0.6,3.7,1.7c1,1.1,1.5,2.7,1.5,4.7
		c0,2.1-0.5,3.7-1.5,4.8s-2.2,1.7-3.7,1.7c-0.7,0-1.3-0.1-1.9-0.4s-1.1-0.7-1.8-1.4v6.3h-3.3V15.6z M64.9,21.6
		c0,1.4,0.3,2.4,0.8,3.1s1.2,1,2,1c0.8,0,1.4-0.3,1.9-0.9s0.8-1.6,0.8-3c0-1.3-0.3-2.3-0.8-2.9s-1.2-0.9-1.9-0.9
		c-0.8,0-1.5,0.3-2,0.9S64.9,20.4,64.9,21.6z"/>
	<path class="st1" d="M76.4,28V10.8h3.3V28H76.4z"/>
	<path class="st1" d="M82.3,21.6c0-1.1,0.3-2.2,0.8-3.2c0.5-1,1.3-1.8,2.3-2.3s2.1-0.8,3.3-0.8c1.9,0,3.4,0.6,4.6,1.8
		c1.2,1.2,1.8,2.8,1.8,4.6c0,1.9-0.6,3.4-1.8,4.7s-2.7,1.9-4.6,1.9c-1.1,0-2.2-0.3-3.3-0.8s-1.8-1.3-2.4-2.3S82.3,23,82.3,21.6z
		 M85.7,21.8c0,1.2,0.3,2.2,0.9,2.8s1.3,1,2.2,1s1.6-0.3,2.2-1s0.9-1.6,0.9-2.9c0-1.2-0.3-2.2-0.9-2.8s-1.3-1-2.2-1s-1.6,0.3-2.2,1
		S85.7,20.6,85.7,21.8z"/>
	<path class="st1" d="M100.9,28h-3.3V15.6h3.1v1.8c0.5-0.8,1-1.4,1.4-1.7s0.9-0.4,1.4-0.4c0.8,0,1.5,0.2,2.2,0.6l-1,2.9
		c-0.6-0.4-1.1-0.5-1.5-0.5c-0.5,0-0.9,0.1-1.2,0.4s-0.6,0.7-0.8,1.4s-0.3,2.1-0.3,4.2V28z"/>
	<path class="st1" d="M114.3,24.1l3.3,0.6c-0.4,1.2-1.1,2.1-2,2.7s-2,0.9-3.4,0.9c-2.2,0-3.8-0.7-4.8-2.1c-0.8-1.1-1.2-2.6-1.2-4.3
		c0-2.1,0.5-3.7,1.6-4.8c1.1-1.2,2.4-1.8,4.1-1.8c1.9,0,3.3,0.6,4.4,1.8c1.1,1.2,1.6,3.1,1.5,5.6h-8.2c0,1,0.3,1.7,0.8,2.3
		s1.1,0.8,1.9,0.8c0.5,0,0.9-0.1,1.3-0.4S114.1,24.7,114.3,24.1z M114.5,20.7c0-1-0.3-1.7-0.7-2.2s-1-0.7-1.7-0.7
		c-0.7,0-1.3,0.3-1.8,0.8s-0.7,1.2-0.7,2.1H114.5z"/>
	<path class="st1" d="M123.6,28h-3.3V15.6h3.1v1.8c0.5-0.8,1-1.4,1.4-1.7s0.9-0.4,1.4-0.4c0.8,0,1.5,0.2,2.2,0.6l-1,2.9
		c-0.6-0.4-1.1-0.5-1.5-0.5c-0.5,0-0.9,0.1-1.2,0.4s-0.6,0.7-0.8,1.4s-0.3,2.1-0.3,4.2V28z"/>
</g>
<g>
	<path class="st1" d="M6.8,0.7c0.4-0.1,1,0.2,1,0.7c0,2.2,0,4.4,0,6.6c0,5,0,10,0,15c0,0.3,0.1,0.6,0.4,0.7c1.2,0.7,2.5,1.4,3.7,2.2
		c0.2,0.1,0.6,0.2,0.8,0c1.3-0.7,2.5-1.5,3.8-2.2c0.3-0.1,0.4-0.5,0.4-0.8c0-1.4,0-2.8,0-4.2c0-0.3-0.1-0.6-0.4-0.8
		c-1.2-0.7-2.4-1.4-3.6-2.1c-0.3-0.2-0.5-0.4-0.6-0.7c0-2.1,0-4.1,0-6.2c0-0.5,0.7-0.9,1.1-0.7c3.3,1.9,6.6,3.8,9.9,5.8
		c0.2,0.2,0.4,0.5,0.4,0.7c0,4.1,0,8.2,0,12.2c0,0.3-0.1,0.6-0.4,0.7c-3.4,2-6.9,4-10.3,6c-0.2,0.1-0.4,0.3-0.6,0.2
		c-0.2,0-0.4-0.1-0.6-0.2c-3.5-2-6.9-4.1-10.4-6.1C1.2,27.4,1,27.1,1,26.8c0-7.5,0-14.9,0-22.4c0-0.3,0.1-0.6,0.4-0.7
		c1.8-1,3.5-2.1,5.3-3.1C6.7,0.7,6.7,0.7,6.8,0.7z"/>
</g>
</svg>
