<?xml version="1.0" encoding="utf-8"?>
<!-- Generator: Adobe Illustrator 26.4.1, SVG Export Plug-In . SVG Version: 6.00 Build 0)  -->
<svg version="1.1" id="Layer_1" xmlns="http://www.w3.org/2000/svg" xmlns:xlink="http://www.w3.org/1999/xlink" x="0px" y="0px"
	 viewBox="0 0 23.2 34.1" style="enable-background:new 0 0 23.2 34.1;" xml:space="preserve">
<style type="text/css">
	.st0{fill:#6BCFF6;}
</style>
<g>
	<path class="st0" d="M6,0.5c0.4-0.1,1,0.2,1,0.7c0,2.2,0,4.4,0,6.6c0,5,0,10,0,15c0,0.3,0.1,0.6,0.4,0.7c1.2,0.7,2.5,1.4,3.7,2.2
		c0.2,0.1,0.6,0.2,0.8,0c1.3-0.7,2.5-1.5,3.8-2.2c0.3-0.1,0.4-0.5,0.4-0.8c0-1.4,0-2.8,0-4.2c0-0.3-0.1-0.6-0.4-0.8
		c-1.2-0.7-2.4-1.4-3.6-2.1c-0.3-0.2-0.5-0.4-0.6-0.7c0-2.1,0-4.1,0-6.2c0-0.5,0.7-0.9,1.1-0.7c3.3,1.9,6.6,3.8,9.9,5.8
		c0.2,0.2,0.4,0.5,0.4,0.7c0,4.1,0,8.2,0,12.2c0,0.3-0.1,0.6-0.4,0.7c-3.4,2-6.9,4-10.3,6c-0.2,0.1-0.4,0.3-0.6,0.2
		c-0.2,0-0.4-0.1-0.6-0.2c-3.5-2-6.9-4.1-10.4-6.1c-0.2-0.1-0.4-0.4-0.4-0.7c0-7.5,0-14.9,0-22.4c0-0.3,0.1-0.6,0.4-0.7
		c1.8-1,3.5-2.1,5.3-3.1C5.9,0.5,6,0.5,6,0.5z"/>
</g>
</svg>
