<?xml version="1.0" standalone="no"?>
<!DOCTYPE svg PUBLIC "-//W3C//DTD SVG 20010904//EN"
 "http://www.w3.org/TR/2001/REC-SVG-20010904/DTD/svg10.dtd">
<svg version="1.0" xmlns="http://www.w3.org/2000/svg"
 width="114.000000pt" height="114.000000pt" viewBox="0 0 114.000000 114.000000"
 preserveAspectRatio="xMidYMid meet">
<metadata>
Created by potrace 1.14, written by Peter Selinger 2001-2017
</metadata>
<g transform="translate(0.000000,114.000000) scale(0.100000,-0.100000)"
fill="#000000" stroke="none">
<path d="M385 1091 c-6 -5 -37 -24 -70 -42 -33 -17 -66 -36 -72 -42 -10 -7
-13 -98 -13 -391 l0 -381 37 -20 c21 -11 96 -55 168 -97 71 -43 134 -78 139
-78 10 0 271 149 319 182 l27 19 0 195 0 194 -37 23 c-114 72 -294 168 -309
165 -15 -3 -18 -15 -17 -98 1 -52 2 -100 2 -107 1 -6 35 -31 76 -54 41 -24 76
-48 76 -53 4 -32 5 -133 1 -143 -2 -7 -34 -30 -72 -51 l-67 -39 -69 42 -69 42
-1 359 c-1 197 -2 365 -3 372 -1 14 -33 16 -46 3z"/>
</g>
</svg>
